<mxfile host="65bd71144e">
    <diagram name="第 1 页" id="ATc6wSicC2Ss3W0qnrPa">
        <mxGraphModel dx="1726" dy="1071" grid="1" gridSize="10" guides="1" tooltips="1" connect="1" arrows="1" fold="1" page="1" pageScale="1" pageWidth="827" pageHeight="1169" math="0" shadow="0">
            <root>
                <mxCell id="0"/>
                <mxCell id="1" parent="0"/>
                <mxCell id="uUVnmg6xGv0TZoXK5kRB-1" value="玛卡ISP研发流程 Model.3" style="swimlane;childLayout=stackLayout;resizeParent=1;resizeParentMax=0;startSize=20;html=1;" parent="1" vertex="1">
                    <mxGeometry x="260" y="90" width="790" height="950" as="geometry"/>
                </mxCell>
                <mxCell id="uUVnmg6xGv0TZoXK5kRB-2" value="项目办" style="swimlane;startSize=20;html=1;fontColor=#3A6CC3;" parent="uUVnmg6xGv0TZoXK5kRB-1" vertex="1">
                    <mxGeometry y="20" width="290" height="930" as="geometry"/>
                </mxCell>
                <mxCell id="uUVnmg6xGv0TZoXK5kRB-20" value="&lt;font face=&quot;Times New Roman&quot; style=&quot;font-size: 11px;&quot; color=&quot;#ffffff&quot;&gt;业务立项&lt;/font&gt;" style="rounded=0;whiteSpace=wrap;html=1;fontColor=#3A6CC3;fillColor=#9f9e9e;strokeColor=none;fontSize=12;" parent="uUVnmg6xGv0TZoXK5kRB-2" vertex="1">
                    <mxGeometry x="95" y="50" width="100" height="60" as="geometry"/>
                </mxCell>
                <mxCell id="uUVnmg6xGv0TZoXK5kRB-21" value="&lt;font color=&quot;#ffffff&quot;&gt;项目启动&lt;/font&gt;" style="rounded=0;whiteSpace=wrap;html=1;fontColor=#3A6CC3;fillColor=#9F9E9E;strokeColor=none;" parent="uUVnmg6xGv0TZoXK5kRB-2" vertex="1">
                    <mxGeometry x="95" y="220" width="100" height="60" as="geometry"/>
                </mxCell>
                <mxCell id="uUVnmg6xGv0TZoXK5kRB-22" value="&lt;p style=&quot;line-height: 120%;&quot;&gt;&lt;font style=&quot;font-size: 11px;&quot; color=&quot;#ffffff&quot;&gt;进度监控Re.Function&lt;/font&gt;&lt;/p&gt;" style="rounded=0;whiteSpace=wrap;html=1;fontColor=#3A6CC3;fillColor=#9F9E9E;strokeColor=none;" parent="uUVnmg6xGv0TZoXK5kRB-2" vertex="1">
                    <mxGeometry x="95" y="390" width="100" height="60" as="geometry"/>
                </mxCell>
                <mxCell id="uUVnmg6xGv0TZoXK5kRB-23" value="&lt;font color=&quot;#ffffff&quot;&gt;需求监控Re.Milestone&lt;/font&gt;" style="rounded=0;whiteSpace=wrap;html=1;fontColor=#3A6CC3;fillColor=#9F9E9E;strokeColor=none;" parent="uUVnmg6xGv0TZoXK5kRB-2" vertex="1">
                    <mxGeometry x="95" y="540" width="100" height="60" as="geometry"/>
                </mxCell>
                <mxCell id="Qnhay3QoUm6l0CYA9o0a-7" value="" style="rounded=1;whiteSpace=wrap;html=1;fontColor=#000000;fillColor=default;gradientColor=#9F9E9E;opacity=40;gradientDirection=east;" parent="uUVnmg6xGv0TZoXK5kRB-2" vertex="1">
                    <mxGeometry x="67.5" y="360" width="155" height="290" as="geometry"/>
                </mxCell>
                <mxCell id="uUVnmg6xGv0TZoXK5kRB-74" style="edgeStyle=orthogonalEdgeStyle;rounded=0;orthogonalLoop=1;jettySize=auto;html=1;exitX=1;exitY=0.5;exitDx=0;exitDy=0;entryX=0;entryY=0.5;entryDx=0;entryDy=0;fontSize=11;fontColor=#FFFFFF;" parent="uUVnmg6xGv0TZoXK5kRB-1" source="uUVnmg6xGv0TZoXK5kRB-20" target="uUVnmg6xGv0TZoXK5kRB-29" edge="1">
                    <mxGeometry relative="1" as="geometry"/>
                </mxCell>
                <mxCell id="uUVnmg6xGv0TZoXK5kRB-77" value="&lt;font color=&quot;#000000&quot;&gt;商务协议&amp;amp;资源计划&lt;/font&gt;" style="edgeLabel;html=1;align=center;verticalAlign=middle;resizable=0;points=[];fontSize=11;fontColor=#FFFFFF;" parent="uUVnmg6xGv0TZoXK5kRB-74" vertex="1" connectable="0">
                    <mxGeometry x="0.135" relative="1" as="geometry">
                        <mxPoint as="offset"/>
                    </mxGeometry>
                </mxCell>
                <mxCell id="uUVnmg6xGv0TZoXK5kRB-78" style="edgeStyle=orthogonalEdgeStyle;rounded=0;orthogonalLoop=1;jettySize=auto;html=1;exitX=0.5;exitY=1;exitDx=0;exitDy=0;entryX=0.5;entryY=0;entryDx=0;entryDy=0;fontSize=11;fontColor=#000000;" parent="uUVnmg6xGv0TZoXK5kRB-1" source="uUVnmg6xGv0TZoXK5kRB-29" target="uUVnmg6xGv0TZoXK5kRB-21" edge="1">
                    <mxGeometry relative="1" as="geometry">
                        <Array as="points">
                            <mxPoint x="400" y="150"/>
                            <mxPoint x="145" y="150"/>
                        </Array>
                    </mxGeometry>
                </mxCell>
                <mxCell id="uUVnmg6xGv0TZoXK5kRB-3" value="产品部" style="swimlane;startSize=20;html=1;fontColor=#3A6CC3;" parent="uUVnmg6xGv0TZoXK5kRB-1" vertex="1">
                    <mxGeometry x="290" y="20" width="220" height="930" as="geometry"/>
                </mxCell>
                <mxCell id="uUVnmg6xGv0TZoXK5kRB-29" value="&lt;font color=&quot;#ffffff&quot;&gt;原案提审&lt;/font&gt;" style="rounded=0;whiteSpace=wrap;html=1;fontColor=#3A6CC3;fillColor=#3F6CC3;strokeColor=none;" parent="uUVnmg6xGv0TZoXK5kRB-3" vertex="1">
                    <mxGeometry x="60" y="50" width="100" height="60" as="geometry"/>
                </mxCell>
                <mxCell id="uUVnmg6xGv0TZoXK5kRB-28" value="&lt;font style=&quot;font-size: 11px;&quot; color=&quot;#ffffff&quot;&gt;原型方案PRD&lt;br style=&quot;font-size: 11px;&quot;&gt;85%+&lt;br&gt;&lt;/font&gt;" style="rounded=0;whiteSpace=wrap;html=1;fontColor=#3A6CC3;fillColor=#3F6CC3;strokeColor=none;" parent="uUVnmg6xGv0TZoXK5kRB-3" vertex="1">
                    <mxGeometry x="60" y="170" width="100" height="60" as="geometry"/>
                </mxCell>
                <mxCell id="uUVnmg6xGv0TZoXK5kRB-27" value="&lt;font color=&quot;#ffffff&quot;&gt;UI方案&lt;br&gt;35%+&lt;br&gt;&lt;/font&gt;" style="rounded=0;whiteSpace=wrap;html=1;fontColor=#3A6CC3;fillColor=#F19D38;strokeColor=none;" parent="uUVnmg6xGv0TZoXK5kRB-3" vertex="1">
                    <mxGeometry x="60" y="280" width="100" height="60" as="geometry"/>
                </mxCell>
                <mxCell id="uUVnmg6xGv0TZoXK5kRB-26" value="&lt;font color=&quot;#ffffff&quot;&gt;发布/中验计划&lt;/font&gt;" style="rounded=0;whiteSpace=wrap;html=1;fontColor=#3A6CC3;fillColor=#9F9E9E;strokeColor=none;" parent="uUVnmg6xGv0TZoXK5kRB-3" vertex="1">
                    <mxGeometry x="60" y="730" width="100" height="60" as="geometry"/>
                </mxCell>
                <mxCell id="uUVnmg6xGv0TZoXK5kRB-24" value="&lt;font color=&quot;#ffffff&quot;&gt;交付验收&lt;/font&gt;" style="rounded=0;whiteSpace=wrap;html=1;fontColor=#3A6CC3;fillColor=#9F9E9E;strokeColor=none;" parent="uUVnmg6xGv0TZoXK5kRB-3" vertex="1">
                    <mxGeometry x="60" y="830" width="100" height="60" as="geometry"/>
                </mxCell>
                <mxCell id="uUVnmg6xGv0TZoXK5kRB-4" value="研发部" style="swimlane;startSize=20;html=1;fontColor=#3A6CC3;" parent="uUVnmg6xGv0TZoXK5kRB-1" vertex="1">
                    <mxGeometry x="510" y="20" width="280" height="930" as="geometry"/>
                </mxCell>
                <mxCell id="Qnhay3QoUm6l0CYA9o0a-8" value="" style="rounded=1;whiteSpace=wrap;html=1;fontColor=#000000;fillColor=#3F6CC3;gradientColor=#9F9E9E;opacity=20;gradientDirection=east;" parent="uUVnmg6xGv0TZoXK5kRB-4" vertex="1">
                    <mxGeometry x="-205" y="150" width="475" height="210" as="geometry"/>
                </mxCell>
                <mxCell id="uUVnmg6xGv0TZoXK5kRB-51" value="" style="verticalLabelPosition=bottom;verticalAlign=top;html=1;shape=mxgraph.basic.rect;fillColor2=none;strokeWidth=1;size=10.5;indent=100;fontColor=#3A6CC3;fillColor=none;gradientColor=default;strokeColor=default;movable=1;resizable=1;rotatable=1;deletable=1;editable=1;connectable=1;" parent="uUVnmg6xGv0TZoXK5kRB-4" vertex="1">
                    <mxGeometry x="10" y="205" width="250" height="90" as="geometry"/>
                </mxCell>
                <mxCell id="uUVnmg6xGv0TZoXK5kRB-36" value="" style="rounded=1;whiteSpace=wrap;html=1;dashed=1;fontColor=#3A6CC3;fillColor=none;gradientColor=default;" parent="uUVnmg6xGv0TZoXK5kRB-4" vertex="1">
                    <mxGeometry x="10" y="30" width="260" height="30" as="geometry"/>
                </mxCell>
                <mxCell id="uUVnmg6xGv0TZoXK5kRB-37" value="&lt;font style=&quot;font-size: 11px;&quot;&gt;客户端作业&lt;/font&gt;" style="rounded=0;whiteSpace=wrap;html=1;fontColor=#3A6CC3;fillColor=#59ac5b;gradientColor=none;strokeColor=none;" parent="uUVnmg6xGv0TZoXK5kRB-4" vertex="1">
                    <mxGeometry x="90" y="36.25" width="40" height="15" as="geometry"/>
                </mxCell>
                <mxCell id="uUVnmg6xGv0TZoXK5kRB-39" value="" style="rounded=0;whiteSpace=wrap;html=1;fontColor=#3A6CC3;fillColor=#3F6CC3;gradientColor=none;strokeColor=none;" parent="uUVnmg6xGv0TZoXK5kRB-4" vertex="1">
                    <mxGeometry x="160" y="35" width="40" height="15" as="geometry"/>
                </mxCell>
                <mxCell id="uUVnmg6xGv0TZoXK5kRB-50" value="&lt;font color=&quot;#ffffff&quot;&gt;&lt;font style=&quot;font-size: 14px;&quot;&gt;数据建模&lt;br&gt;91%+&lt;/font&gt;&lt;br&gt;&lt;/font&gt;" style="rounded=0;whiteSpace=wrap;html=1;fontColor=#3A6CC3;fillColor=#3F6CC3;strokeColor=none;" parent="uUVnmg6xGv0TZoXK5kRB-4" vertex="1">
                    <mxGeometry x="20" y="220" width="100" height="60" as="geometry"/>
                </mxCell>
                <mxCell id="uUVnmg6xGv0TZoXK5kRB-49" value="&lt;font style=&quot;font-size: 14px;&quot;&gt;架构/方案选型&lt;/font&gt;" style="rounded=0;whiteSpace=wrap;html=1;fontColor=#3A6CC3;fillColor=none;strokeColor=#3F6CC3;" parent="uUVnmg6xGv0TZoXK5kRB-4" vertex="1">
                    <mxGeometry x="150" y="220" width="100" height="60" as="geometry"/>
                </mxCell>
                <mxCell id="uUVnmg6xGv0TZoXK5kRB-58" value="&lt;font color=&quot;#ffffff&quot;&gt;业务/数据开发&lt;br&gt;MS 2.5+&lt;br&gt;&lt;/font&gt;" style="rounded=0;whiteSpace=wrap;html=1;fontColor=#3A6CC3;fillColor=#3F6CC3;strokeColor=none;" parent="uUVnmg6xGv0TZoXK5kRB-4" vertex="1">
                    <mxGeometry x="105" y="410" width="100" height="60" as="geometry"/>
                </mxCell>
                <mxCell id="uUVnmg6xGv0TZoXK5kRB-55" value="&lt;font color=&quot;#ffffff&quot;&gt;前端开发MS 1.5+&lt;/font&gt;" style="rounded=0;whiteSpace=wrap;html=1;fontColor=#3A6CC3;fillColor=#59ac5b;strokeColor=none;" parent="uUVnmg6xGv0TZoXK5kRB-4" vertex="1">
                    <mxGeometry x="20" y="500" width="100" height="60" as="geometry"/>
                </mxCell>
                <mxCell id="uUVnmg6xGv0TZoXK5kRB-57" value="&lt;font color=&quot;#ffffff&quot;&gt;用例设计&lt;/font&gt;" style="rounded=0;whiteSpace=wrap;html=1;fontColor=#3A6CC3;fillColor=#F19D38;strokeColor=none;" parent="uUVnmg6xGv0TZoXK5kRB-4" vertex="1">
                    <mxGeometry x="20" y="630" width="100" height="60" as="geometry"/>
                </mxCell>
                <mxCell id="uUVnmg6xGv0TZoXK5kRB-56" value="&lt;font color=&quot;#ffffff&quot;&gt;阶段评审冒烟/功能测试&lt;/font&gt;" style="rounded=0;whiteSpace=wrap;html=1;fontColor=#3A6CC3;fillColor=#F19D38;strokeColor=none;" parent="uUVnmg6xGv0TZoXK5kRB-4" vertex="1">
                    <mxGeometry x="105" y="730" width="100" height="60" as="geometry"/>
                </mxCell>
                <mxCell id="uUVnmg6xGv0TZoXK5kRB-69" value="&lt;p style=&quot;line-height: 120%;&quot;&gt;&lt;font style=&quot;font-size: 11px;&quot; color=&quot;#000000&quot;&gt;图例&lt;/font&gt;&lt;/p&gt;" style="text;html=1;strokeColor=none;fillColor=none;align=center;verticalAlign=middle;whiteSpace=wrap;rounded=0;fontColor=#3A6CC3;" parent="uUVnmg6xGv0TZoXK5kRB-4" vertex="1">
                    <mxGeometry x="30" y="36.25" width="35" height="17.5" as="geometry"/>
                </mxCell>
                <mxCell id="uUVnmg6xGv0TZoXK5kRB-72" value="技术方案" style="rounded=0;whiteSpace=wrap;html=1;shadow=0;glass=0;labelBackgroundColor=#ffffff;sketch=0;strokeColor=none;fontSize=11;fontColor=#000000;fillColor=default;gradientColor=none;" parent="uUVnmg6xGv0TZoXK5kRB-4" vertex="1">
                    <mxGeometry x="195" y="185" width="60" height="30" as="geometry"/>
                </mxCell>
                <mxCell id="Qnhay3QoUm6l0CYA9o0a-10" value="综合项目方案" style="rounded=0;whiteSpace=wrap;html=1;fontColor=#000000;fillColor=#FFFFFF;gradientColor=none;gradientDirection=east;strokeColor=none;" parent="uUVnmg6xGv0TZoXK5kRB-4" vertex="1">
                    <mxGeometry x="150" y="130" width="110" height="40" as="geometry"/>
                </mxCell>
                <mxCell id="uUVnmg6xGv0TZoXK5kRB-47" value="" style="rounded=0;whiteSpace=wrap;html=1;fontColor=#3A6CC3;fillColor=#F19D38;gradientColor=none;strokeColor=none;" parent="uUVnmg6xGv0TZoXK5kRB-4" vertex="1">
                    <mxGeometry x="220" y="35" width="40" height="17.5" as="geometry"/>
                </mxCell>
                <mxCell id="uUVnmg6xGv0TZoXK5kRB-80" value="" style="ellipse;whiteSpace=wrap;html=1;aspect=fixed;rounded=1;shadow=0;glass=1;labelBackgroundColor=#ffffff;sketch=0;strokeColor=default;fontSize=11;fontColor=#000000;fillColor=none;gradientColor=none;dashed=1;" parent="uUVnmg6xGv0TZoXK5kRB-4" vertex="1">
                    <mxGeometry x="55" y="375" width="200" height="200" as="geometry"/>
                </mxCell>
            </root>
        </mxGraphModel>
    </diagram>
</mxfile>